<svg width="163" height="28" viewBox="0 0 163 28" fill="none" xmlns="http://www.w3.org/2000/svg">
<path d="M16.23 14.13C15.47 14.11 14.71 14.09 13.95 14.07C13.19 14.03 12.43 14.01 11.67 14.01C10.91 14.01 10.15 14.02 9.39 14.04C8.63 14.06 7.87 14.09 7.11 14.13V15.84C7.11 17.5 7.13 18.98 7.17 20.28C7.21 21.56 7.27 22.82 7.35 24.06C7.01 24.02 6.64 24 6.24 24C5.84 24 5.39 24 4.89 24C4.39 24 3.94 24 3.54 24C3.14 24 2.77 24.02 2.43 24.06C2.51 22.82 2.57 21.56 2.61 20.28C2.65 18.98 2.67 17.5 2.67 15.84V11.76C2.67 10.1 2.65 8.63 2.61 7.35C2.57 6.05 2.51 4.75 2.43 3.45C2.77 3.49 3.14 3.53 3.54 3.57C3.94 3.59 4.39 3.6 4.89 3.6C5.39 3.6 5.84 3.59 6.24 3.57C6.64 3.53 7.01 3.49 7.35 3.45C7.25 4.75 7.18 6.04 7.14 7.32C7.12 8.58 7.11 10.04 7.11 11.7C7.63 11.72 8.25 11.74 8.97 11.76C9.71 11.76 10.62 11.76 11.7 11.76C12.78 11.76 13.66 11.76 14.34 11.76C15.02 11.74 15.65 11.72 16.23 11.7C16.23 10.04 16.21 8.58 16.17 7.32C16.13 6.04 16.07 4.75 15.99 3.45C16.33 3.49 16.7 3.53 17.1 3.57C17.5 3.59 17.95 3.6 18.45 3.6C18.95 3.6 19.4 3.59 19.8 3.57C20.2 3.53 20.57 3.49 20.91 3.45C20.83 4.75 20.77 6.05 20.73 7.35C20.69 8.63 20.67 10.1 20.67 11.76V15.84C20.67 17.5 20.69 18.98 20.73 20.28C20.77 21.56 20.83 22.82 20.91 24.06C20.57 24.02 20.2 24 19.8 24C19.4 24 18.95 24 18.45 24C17.95 24 17.5 24 17.1 24C16.7 24 16.33 24.02 15.99 24.06C16.07 22.82 16.13 21.56 16.17 20.28C16.21 18.98 16.23 17.5 16.23 15.84V14.13ZM29.3796 16.89C29.3796 17.69 29.4596 18.44 29.6196 19.14C29.7796 19.84 30.0196 20.45 30.3396 20.97C30.6796 21.47 31.0996 21.87 31.5996 22.17C32.1196 22.45 32.7196 22.59 33.3996 22.59C34.7796 22.59 36.0096 22.14 37.0896 21.24L37.4496 21.51L36.7896 23.19C36.2896 23.57 35.6896 23.87 34.9896 24.09C34.2896 24.33 33.3696 24.45 32.2296 24.45C31.2496 24.45 30.3196 24.31 29.4396 24.03C28.5596 23.77 27.7796 23.33 27.0996 22.71C26.4396 22.09 25.9096 21.31 25.5096 20.37C25.1296 19.41 24.9396 18.27 24.9396 16.95C24.9396 15.65 25.1096 14.52 25.4496 13.56C25.8096 12.6 26.2996 11.8 26.9196 11.16C27.5396 10.52 28.2696 10.04 29.1096 9.72C29.9696 9.4 30.8996 9.24 31.8996 9.24C33.8796 9.24 35.3896 9.82 36.4296 10.98C37.4896 12.14 38.0196 13.78 38.0196 15.9V16.53C38.0196 16.71 38.0096 16.83 37.9896 16.89H29.3796ZM33.9996 15.54C33.9596 14.04 33.7696 12.84 33.4296 11.94C33.1096 11.04 32.5596 10.59 31.7796 10.59C31.3396 10.59 30.9696 10.74 30.6696 11.04C30.3696 11.34 30.1296 11.73 29.9496 12.21C29.7696 12.67 29.6296 13.2 29.5296 13.8C29.4496 14.38 29.3996 14.96 29.3796 15.54H33.9996ZM41.7096 11.82C41.7096 9.86 41.6896 8.06 41.6496 6.42C41.6096 4.78 41.5496 3.12 41.4696 1.44C41.7296 1.48 42.0596 1.52 42.4596 1.56C42.8596 1.58 43.2796 1.59 43.7196 1.59C44.1596 1.59 44.5796 1.58 44.9796 1.56C45.3796 1.52 45.7096 1.48 45.9696 1.44C45.8896 3.12 45.8296 4.78 45.7896 6.42C45.7496 8.06 45.7296 9.86 45.7296 11.82V13.77C45.7296 15.73 45.7496 17.53 45.7896 19.17C45.8296 20.81 45.8896 22.44 45.9696 24.06C45.7096 24.02 45.3796 24 44.9796 24C44.5796 24 44.1596 24 43.7196 24C43.2796 24 42.8596 24 42.4596 24C42.0596 24 41.7296 24.02 41.4696 24.06C41.5496 22.44 41.6096 20.81 41.6496 19.17C41.6896 17.53 41.7096 15.73 41.7096 13.77V11.82ZM50.6592 11.82C50.6592 9.86 50.6392 8.06 50.5992 6.42C50.5592 4.78 50.4992 3.12 50.4192 1.44C50.6792 1.48 51.0092 1.52 51.4092 1.56C51.8092 1.58 52.2292 1.59 52.6692 1.59C53.1092 1.59 53.5292 1.58 53.9292 1.56C54.3292 1.52 54.6592 1.48 54.9192 1.44C54.8392 3.12 54.7792 4.78 54.7392 6.42C54.6992 8.06 54.6792 9.86 54.6792 11.82V13.77C54.6792 15.73 54.6992 17.53 54.7392 19.17C54.7792 20.81 54.8392 22.44 54.9192 24.06C54.6592 24.02 54.3292 24 53.9292 24C53.5292 24 53.1092 24 52.6692 24C52.2292 24 51.8092 24 51.4092 24C51.0092 24 50.6792 24.02 50.4192 24.06C50.4992 22.44 50.5592 20.81 50.5992 19.17C50.6392 17.53 50.6592 15.73 50.6592 13.77V11.82ZM68.6988 16.14C68.6988 14.38 68.4788 13.02 68.0388 12.06C67.5988 11.08 66.8688 10.59 65.8488 10.59C64.9288 10.59 64.1988 11.13 63.6588 12.21C63.1388 13.29 62.8788 14.98 62.8788 17.28C62.8788 18.12 62.9288 18.9 63.0288 19.62C63.1288 20.34 63.2888 20.97 63.5088 21.51C63.7488 22.03 64.0488 22.44 64.4088 22.74C64.7888 23.04 65.2588 23.19 65.8188 23.19C67.7388 23.19 68.6988 20.84 68.6988 16.14ZM58.4388 17.25C58.4388 15.91 58.6388 14.74 59.0388 13.74C59.4588 12.74 60.0088 11.91 60.6888 11.25C61.3688 10.57 62.1488 10.07 63.0288 9.75C63.9288 9.41 64.8488 9.24 65.7888 9.24C68.1288 9.24 69.9388 9.9 71.2188 11.22C72.4988 12.54 73.1388 14.33 73.1388 16.59C73.1388 17.81 72.9588 18.91 72.5988 19.89C72.2388 20.87 71.7288 21.71 71.0688 22.41C70.4288 23.09 69.6588 23.6 68.7588 23.94C67.8588 24.28 66.8688 24.45 65.7888 24.45C64.8888 24.45 63.9988 24.33 63.1188 24.09C62.2588 23.85 61.4788 23.45 60.7788 22.89C60.0788 22.31 59.5088 21.56 59.0688 20.64C58.6488 19.72 58.4388 18.59 58.4388 17.25ZM95.1884 7.5C94.5484 5.78 93.3384 4.92 91.5584 4.92C90.6384 4.92 89.8884 5.19 89.3084 5.73C88.7284 6.27 88.4384 6.9 88.4384 7.62C88.4384 8.36 88.6584 8.97 89.0984 9.45C89.5584 9.91 90.1284 10.33 90.8084 10.71C91.4884 11.09 92.2184 11.46 92.9984 11.82C93.7784 12.16 94.5084 12.59 95.1884 13.11C95.8684 13.61 96.4284 14.23 96.8684 14.97C97.3284 15.69 97.5584 16.62 97.5584 17.76C97.5584 18.76 97.3684 19.68 96.9884 20.52C96.6084 21.34 96.0684 22.05 95.3684 22.65C94.6684 23.23 93.8284 23.68 92.8484 24C91.8884 24.3 90.8084 24.45 89.6084 24.45C88.5284 24.45 87.5584 24.33 86.6984 24.09C85.8584 23.87 85.2184 23.59 84.7784 23.25C84.9784 22.55 85.1484 21.91 85.2884 21.33C85.4284 20.75 85.5484 20.12 85.6484 19.44H86.2184C86.2984 19.88 86.4484 20.3 86.6684 20.7C86.8884 21.08 87.1684 21.42 87.5084 21.72C87.8484 22.02 88.2584 22.26 88.7384 22.44C89.2184 22.6 89.7584 22.68 90.3584 22.68C91.5584 22.68 92.4384 22.38 92.9984 21.78C93.5784 21.18 93.8684 20.46 93.8684 19.62C93.8684 18.86 93.6484 18.24 93.2084 17.76C92.7684 17.28 92.2184 16.86 91.5584 16.5C90.8984 16.12 90.1784 15.76 89.3984 15.42C88.6184 15.06 87.8984 14.63 87.2384 14.13C86.5784 13.63 86.0284 13.02 85.5884 12.3C85.1484 11.56 84.9284 10.62 84.9284 9.48C84.9284 8.44 85.1084 7.52 85.4684 6.72C85.8484 5.92 86.3484 5.25 86.9684 4.71C87.5884 4.17 88.2984 3.76 89.0984 3.48C89.9184 3.2 90.7784 3.06 91.6784 3.06C92.7584 3.06 93.6984 3.19 94.4984 3.45C95.3184 3.71 96.0184 4.07 96.5984 4.53C96.4184 4.99 96.2584 5.44 96.1184 5.88C95.9984 6.3 95.8384 6.84 95.6384 7.5H95.1884ZM110.518 16.14C110.518 14.38 110.298 13.02 109.858 12.06C109.418 11.08 108.688 10.59 107.668 10.59C106.748 10.59 106.018 11.13 105.478 12.21C104.958 13.29 104.698 14.98 104.698 17.28C104.698 18.12 104.748 18.9 104.848 19.62C104.948 20.34 105.108 20.97 105.328 21.51C105.568 22.03 105.868 22.44 106.228 22.74C106.608 23.04 107.078 23.19 107.638 23.19C109.558 23.19 110.518 20.84 110.518 16.14ZM100.258 17.25C100.258 15.91 100.458 14.74 100.858 13.74C101.278 12.74 101.828 11.91 102.508 11.25C103.188 10.57 103.968 10.07 104.848 9.75C105.748 9.41 106.668 9.24 107.608 9.24C109.948 9.24 111.758 9.9 113.038 11.22C114.318 12.54 114.958 14.33 114.958 16.59C114.958 17.81 114.778 18.91 114.418 19.89C114.058 20.87 113.548 21.71 112.888 22.41C112.248 23.09 111.478 23.6 110.578 23.94C109.678 24.28 108.688 24.45 107.608 24.45C106.708 24.45 105.818 24.33 104.938 24.09C104.078 23.85 103.298 23.45 102.598 22.89C101.898 22.31 101.328 21.56 100.888 20.64C100.468 19.72 100.258 18.59 100.258 17.25ZM129.048 13.77C128.888 12.87 128.568 12.15 128.088 11.61C127.628 11.05 126.938 10.77 126.018 10.77C124.818 10.77 123.918 11.32 123.318 12.42C122.718 13.5 122.418 15.01 122.418 16.95C122.418 18.77 122.798 20.17 123.558 21.15C124.318 22.11 125.428 22.59 126.888 22.59C127.508 22.59 128.108 22.45 128.688 22.17C129.268 21.87 129.698 21.54 129.978 21.18L130.338 21.48C130.198 21.76 130.078 22.05 129.978 22.35C129.878 22.65 129.778 22.95 129.678 23.25C129.238 23.59 128.678 23.87 127.998 24.09C127.338 24.33 126.548 24.45 125.628 24.45C124.168 24.45 122.938 24.24 121.938 23.82C120.938 23.4 120.128 22.83 119.508 22.11C118.908 21.39 118.478 20.58 118.218 19.68C117.958 18.76 117.828 17.84 117.828 16.92C117.828 15.82 118.008 14.8 118.368 13.86C118.748 12.92 119.278 12.11 119.958 11.43C120.658 10.75 121.498 10.22 122.478 9.84C123.458 9.44 124.548 9.24 125.748 9.24C126.888 9.24 127.848 9.37 128.628 9.63C129.428 9.89 130.188 10.23 130.908 10.65C130.668 11.05 130.438 11.54 130.218 12.12C130.018 12.7 129.868 13.25 129.768 13.77H129.048ZM133.441 11.82C133.441 9.86 133.421 8.06 133.381 6.42C133.341 4.78 133.281 3.12 133.201 1.44C133.461 1.48 133.791 1.52 134.191 1.56C134.591 1.58 135.011 1.59 135.451 1.59C135.891 1.59 136.311 1.58 136.711 1.56C137.111 1.52 137.441 1.48 137.701 1.44C137.661 2.28 137.621 3.13 137.581 3.99C137.561 4.85 137.541 5.82 137.521 6.9C137.501 7.98 137.481 9.22 137.461 10.62C137.461 12 137.461 13.65 137.461 15.57C137.461 15.85 137.461 16.03 137.461 16.11C137.481 16.19 137.531 16.23 137.611 16.23C137.691 16.23 137.881 16.08 138.181 15.78C138.501 15.46 138.901 15.01 139.381 14.43C139.881 13.85 140.451 13.16 141.091 12.36C141.751 11.54 142.471 10.63 143.251 9.63C143.491 9.67 143.721 9.71 143.941 9.75C144.181 9.77 144.421 9.78 144.661 9.78C144.881 9.78 145.121 9.77 145.381 9.75C145.641 9.71 145.961 9.67 146.341 9.63C146.081 9.93 145.691 10.34 145.171 10.86C144.671 11.38 144.151 11.92 143.611 12.48C143.071 13.02 142.561 13.54 142.081 14.04C141.601 14.54 141.251 14.91 141.031 15.15C141.111 15.27 141.281 15.55 141.541 15.99C141.821 16.43 142.151 16.96 142.531 17.58C142.911 18.18 143.311 18.83 143.731 19.53C144.151 20.21 144.541 20.87 144.901 21.51C145.281 22.13 145.611 22.68 145.891 23.16C146.171 23.62 146.351 23.92 146.431 24.06C146.011 24.02 145.611 24 145.231 24C144.851 24 144.461 24 144.061 24C143.661 24 143.271 24 142.891 24C142.531 24 142.161 24.02 141.781 24.06C141.681 23.96 141.511 23.71 141.271 23.31C141.051 22.91 140.791 22.46 140.491 21.96C140.211 21.44 139.911 20.9 139.591 20.34C139.291 19.78 139.001 19.27 138.721 18.81C138.441 18.33 138.191 17.94 137.971 17.64C137.751 17.34 137.601 17.19 137.521 17.19C137.441 17.19 137.381 17.25 137.341 17.37C137.321 17.49 137.311 17.86 137.311 18.48V20.16C137.311 20.42 137.311 20.74 137.311 21.12C137.331 21.5 137.341 21.89 137.341 22.29C137.361 22.67 137.381 23.03 137.401 23.37C137.441 23.71 137.481 23.94 137.521 24.06C137.161 24.02 136.801 24 136.441 24C136.081 24 135.721 24 135.361 24C135.001 24 134.641 24 134.281 24C133.921 24 133.561 24.02 133.201 24.06C133.281 22.44 133.341 20.81 133.381 19.17C133.421 17.53 133.441 15.73 133.441 13.77V11.82ZM149.281 20.37C149.401 20.69 149.551 21 149.731 21.3C149.931 21.58 150.171 21.84 150.451 22.08C150.731 22.3 151.061 22.48 151.441 22.62C151.841 22.76 152.301 22.83 152.821 22.83C153.521 22.83 154.061 22.65 154.441 22.29C154.821 21.93 155.011 21.54 155.011 21.12C155.011 20.66 154.841 20.29 154.501 20.01C154.161 19.73 153.731 19.48 153.211 19.26C152.711 19.02 152.161 18.78 151.561 18.54C150.961 18.3 150.401 18 149.881 17.64C149.381 17.26 148.961 16.79 148.621 16.23C148.281 15.67 148.111 14.95 148.111 14.07C148.111 13.23 148.261 12.51 148.561 11.91C148.881 11.29 149.291 10.79 149.791 10.41C150.291 10.01 150.851 9.72 151.471 9.54C152.111 9.34 152.741 9.24 153.361 9.24C154.201 9.24 154.941 9.36 155.581 9.6C156.241 9.84 156.911 10.19 157.591 10.65C157.411 11.05 157.261 11.48 157.141 11.94C157.021 12.4 156.931 12.85 156.871 13.29H156.031C155.971 13.05 155.871 12.79 155.731 12.51C155.591 12.21 155.401 11.93 155.161 11.67C154.921 11.41 154.631 11.2 154.291 11.04C153.951 10.86 153.541 10.77 153.061 10.77C152.461 10.77 151.951 10.93 151.531 11.25C151.131 11.57 150.931 11.99 150.931 12.51C150.931 12.99 151.101 13.38 151.441 13.68C151.801 13.96 152.241 14.21 152.761 14.43C153.281 14.65 153.851 14.87 154.471 15.09C155.091 15.31 155.661 15.6 156.181 15.96C156.701 16.3 157.131 16.75 157.471 17.31C157.831 17.87 158.011 18.59 158.011 19.47C158.011 20.35 157.851 21.11 157.531 21.75C157.211 22.37 156.781 22.89 156.241 23.31C155.701 23.71 155.081 24 154.381 24.18C153.701 24.36 152.981 24.45 152.221 24.45C151.321 24.45 150.511 24.32 149.791 24.06C149.071 23.8 148.501 23.53 148.081 23.25C148.321 22.29 148.471 21.33 148.531 20.37H149.281Z" fill="black"/>
</svg>
